<?xml version="1.0" encoding="utf-8"?>
<!-- Generator: Adobe Illustrator 25.2.1, SVG Export Plug-In . SVG Version: 6.00 Build 0)  -->
<svg version="1.1"
	 id="svg1139" xmlns:cc="http://creativecommons.org/ns#" xmlns:dc="http://purl.org/dc/elements/1.1/" xmlns:inkscape="http://www.inkscape.org/namespaces/inkscape" xmlns:rdf="http://www.w3.org/1999/02/22-rdf-syntax-ns#" xmlns:sodipodi="http://sodipodi.sourceforge.net/DTD/sodipodi-0.dtd" xmlns:svg="http://www.w3.org/2000/svg"
	 xmlns="http://www.w3.org/2000/svg" xmlns:xlink="http://www.w3.org/1999/xlink" x="0px" y="0px" viewBox="0 0 110.5 56.7"
	 style="enable-background:new 0 0 110.5 56.7;" xml:space="preserve">
<style type="text/css">
	.st0{fill-rule:evenodd;clip-rule:evenodd;fill:#013333;}
	.st1{fill-rule:evenodd;clip-rule:evenodd;fill:none;}
	.st2{fill:#013333;}
	.st3{font-family:'FiraCode-Medium';}
	.st4{font-size:10px;}
</style>
<sodipodi:namedview  bordercolor="#666666" borderopacity="1.0" fit-margin-bottom="0" fit-margin-left="0" fit-margin-right="0" fit-margin-top="0" id="base" inkscape:bbox-nodes="true" inkscape:bbox-paths="true" inkscape:current-layer="layer1" inkscape:cx="37.795276" inkscape:cy="37.795276" inkscape:document-units="mm" inkscape:object-paths="true" inkscape:pageopacity="0.0" inkscape:pageshadow="2" inkscape:snap-bbox="true" inkscape:snap-bbox-edge-midpoints="true" inkscape:snap-bbox-midpoints="true" inkscape:snap-intersection-paths="true" inkscape:snap-midpoints="true" inkscape:snap-smooth-nodes="true" inkscape:window-height="1041" inkscape:window-maximized="0" inkscape:window-width="944" inkscape:window-x="960" inkscape:window-y="0" inkscape:zoom="6.9717708" pagecolor="#ffffff" showgrid="false">
	</sodipodi:namedview>
<path id="rect6094-5-9" inkscape:connector-curvature="0" sodipodi:nodetypes="sccssssccccccccccssccccccssssccsccscscscsccccccccccc" class="st0" d="
	M28.4,11.2c-4.1,0-8.2,1.4-11.5,4.2c-2,1.7-3.5,3.7-4.6,6c-0.1,0-0.3,0-0.4,0c-2.7,0-4.8,2.1-4.8,4.8v6c0,2.7,2.1,4.8,4.8,4.8
	c0.2,0,0.3,0,0.4,0c0.2,0.4,0.4,0.8,0.6,1.2c0.9,1.6,3.2,0.2,2.3-1.3c-3.7-6.4-2.3-14.5,3.4-19.3c5.7-4.8,13.9-4.8,19.6,0
	c5.7,4.8,7.1,12.9,3.4,19.3l0,0.1l0,0.1c0,0-1.8,4-5.3,4l-4.5,0c-0.4-0.6-1.1-1-1.9-1H27c-1.3,0-2.3,1-2.3,2.3
	c0,0.8,0.5,1.4,1.7,1.4l9.9,0c5.3,0,7.6-5.2,7.7-5.4v0c0.2-0.4,0.4-0.8,0.6-1.2c0.2,0,0.3,0,0.5,0c2.7,0,4.8-2.1,4.8-4.8v-6
	c0-2.7-2.1-4.8-4.8-4.8c-0.2,0-0.3,0-0.5,0c-1.1-2.2-2.6-4.3-4.6-6C36.6,12.6,32.5,11.2,28.4,11.2L28.4,11.2z M22.6,19.7
	c-1-0.1-2,0.2-2.8,1c-2.2,2.3-3.6,5.5-3.6,8.9c0,2.8,0.9,5.9,2.5,6c2.2,0.2,5.7-1.3,9.7-1.3c4.2,0,7.9,1.6,10.1,1.3
	c1.3-0.2,2.1-3.4,2.1-6c0-3.4-1.4-6.5-3.6-8.9c-2.2-2.3-5.3,0-8.6,0C26.3,20.7,24.3,19.8,22.6,19.7z M22.1,25.4c1.2,0,2.2,1,2.2,2.2
	c0,1.2-1,2.2-2.2,2.2c-1.2,0-2.2-1-2.2-2.2C19.9,26.4,20.9,25.4,22.1,25.4z M34.7,25.4c1.2,0,2.2,1,2.2,2.2c0,1.2-1,2.2-2.2,2.2
	c-1.2,0-2.2-1-2.2-2.2C32.5,26.4,33.5,25.4,34.7,25.4z"/>
<sodipodi:namedview  bordercolor="#666666" borderopacity="1.0" fit-margin-bottom="0" fit-margin-left="0" fit-margin-right="0" fit-margin-top="0" id="base" inkscape:bbox-nodes="true" inkscape:bbox-paths="true" inkscape:current-layer="layer1" inkscape:cx="37.795276" inkscape:cy="37.795276" inkscape:document-units="mm" inkscape:object-paths="true" inkscape:pageopacity="0.0" inkscape:pageshadow="2" inkscape:snap-bbox="true" inkscape:snap-bbox-edge-midpoints="true" inkscape:snap-bbox-midpoints="true" inkscape:snap-intersection-paths="true" inkscape:snap-midpoints="true" inkscape:snap-smooth-nodes="true" inkscape:window-height="1041" inkscape:window-maximized="0" inkscape:window-width="944" inkscape:window-x="960" inkscape:window-y="0" inkscape:zoom="6.9717708" pagecolor="#ffffff" showgrid="false">
	</sodipodi:namedview>
<sodipodi:namedview  bordercolor="#666666" borderopacity="1.0" fit-margin-bottom="0" fit-margin-left="0" fit-margin-right="0" fit-margin-top="0" id="base" inkscape:bbox-nodes="true" inkscape:bbox-paths="true" inkscape:current-layer="layer1" inkscape:cx="37.795276" inkscape:cy="37.795276" inkscape:document-units="mm" inkscape:object-paths="true" inkscape:pageopacity="0.0" inkscape:pageshadow="2" inkscape:snap-bbox="true" inkscape:snap-bbox-edge-midpoints="true" inkscape:snap-bbox-midpoints="true" inkscape:snap-intersection-paths="true" inkscape:snap-midpoints="true" inkscape:snap-smooth-nodes="true" inkscape:window-height="1041" inkscape:window-maximized="0" inkscape:window-width="944" inkscape:window-x="960" inkscape:window-y="0" inkscape:zoom="6.9717708" pagecolor="#ffffff" showgrid="false">
	</sodipodi:namedview>
<rect x="55.8" y="24.8" class="st1" width="45.4" height="10.5"/>
<text transform="matrix(1 0 0 1 56.9808 32.4955)" class="st2 st3 st4">Daialog</text>
</svg>
